<svg width="18" height="12" viewBox="0 0 18 12" fill="none" xmlns="http://www.w3.org/2000/svg">
<path d="M8.91681 9.11829C9.85431 9.11829 10.6512 8.79016 11.3074 8.13391C11.9637 7.47766 12.2918 6.68079 12.2918 5.74329C12.2918 4.80579 11.9637 4.00891 11.3074 3.35266C10.6512 2.69641 9.85431 2.36829 8.91681 2.36829C7.97931 2.36829 7.18244 2.69641 6.52619 3.35266C5.86994 4.00891 5.54181 4.80579 5.54181 5.74329C5.54181 6.68079 5.86994 7.47766 6.52619 8.13391C7.18244 8.79016 7.97931 9.11829 8.91681 9.11829ZM8.91681 7.76829C8.35431 7.76829 7.87619 7.57141 7.48244 7.17766C7.08869 6.78391 6.89181 6.30579 6.89181 5.74329C6.89181 5.18079 7.08869 4.70266 7.48244 4.30891C7.87619 3.91516 8.35431 3.71829 8.91681 3.71829C9.47931 3.71829 9.95744 3.91516 10.3512 4.30891C10.7449 4.70266 10.9418 5.18079 10.9418 5.74329C10.9418 6.30579 10.7449 6.78391 10.3512 7.17766C9.95744 7.57141 9.47931 7.76829 8.91681 7.76829ZM8.91681 11.3683C7.09181 11.3683 5.42931 10.8589 3.92931 9.84016C2.42931 8.82141 1.34181 7.45579 0.666809 5.74329C1.34181 4.03079 2.42931 2.66516 3.92931 1.64641C5.42931 0.627661 7.09181 0.118286 8.91681 0.118286C10.7418 0.118286 12.4043 0.627661 13.9043 1.64641C15.4043 2.66516 16.4918 4.03079 17.1668 5.74329C16.4918 7.45579 15.4043 8.82141 13.9043 9.84016C12.4043 10.8589 10.7418 11.3683 8.91681 11.3683ZM8.91681 9.86829C10.3293 9.86829 11.6262 9.49641 12.8074 8.75266C13.9887 8.00891 14.8918 7.00579 15.5168 5.74329C14.8918 4.48079 13.9887 3.47766 12.8074 2.73391C11.6262 1.99016 10.3293 1.61829 8.91681 1.61829C7.50431 1.61829 6.20744 1.99016 5.02619 2.73391C3.84494 3.47766 2.94181 4.48079 2.31681 5.74329C2.94181 7.00579 3.84494 8.00891 5.02619 8.75266C6.20744 9.49641 7.50431 9.86829 8.91681 9.86829Z" fill="#1C1B1F"/>
</svg>
